<?xml version="1.0" encoding="utf-8"?>
<svg version="1.1" id="Layer_1" xmlns="http://www.w3.org/2000/svg" x="0px" y="0px" width="100%" viewBox="0 0 512 512" enable-background="new 0 0 512 512">
  <path fill="#020202" opacity="1.000000" stroke="none" d=" M513.000000,400.531342 C508.169708,412.489716 499.087067,415.241760 487.336670,415.177124 C425.848785,414.838623 364.357269,414.858948 302.868866,415.146881 C289.733124,415.208374 280.376312,407.486481 280.690033,393.155273 C281.313354,364.680389 280.874390,336.182251 280.874390,307.656525 C272.879089,309.887329 271.125732,312.096100 271.125702,319.806427 C271.125610,371.293152 271.129944,422.779907 271.122559,474.266632 C271.120636,487.610535 263.818604,495.004608 250.518494,495.009155 C187.029068,495.030853 123.539635,495.026184 60.050205,495.012421 C46.559715,495.009491 39.020813,487.516144 39.010635,473.981567 C38.975296,426.989410 38.996986,379.997223 38.996983,333.005035 C38.996983,331.195740 38.996983,329.386475 38.996983,327.017731 C35.840023,327.017731 32.900417,327.051178 29.961779,327.011902 C17.992506,326.851929 10.393653,319.376892 10.003023,307.392548 C9.965041,306.227295 9.997022,305.059753 9.997021,303.893280 C9.996971,213.908264 9.996564,123.923248 9.997364,33.938229 C9.997509,17.703285 16.769350,10.982624 33.125031,10.981277 C48.955727,10.979973 64.786438,10.994323 80.617111,10.973393 C85.204590,10.967328 88.811722,12.332340 90.116226,18.017254 C89.734550,23.859966 86.629715,25.909721 81.838829,25.959063 C74.224045,26.037485 66.608910,26.081301 58.531769,26.060703 C49.570488,25.977304 41.071358,25.968822 32.572227,25.969845 C25.009851,25.970755 25.005566,25.975401 25.005480,33.460373 C25.004457,122.118164 24.984194,210.775970 25.026432,299.433746 C25.032974,313.164368 22.858345,312.146851 37.967583,311.945953 C38.231480,311.942474 38.491184,311.623322 38.995895,311.291840 C38.995895,309.635773 38.995895,307.823547 38.995895,306.011353 C38.995895,271.014862 38.989899,236.018356 38.998882,201.021851 C39.002419,187.250854 44.377346,180.996109 58.490227,178.886353 C103.914467,178.969604 148.877609,179.045578 193.839981,178.894089 C199.249237,178.875870 203.345917,180.318390 207.050385,184.344208 C213.280655,191.114944 219.958511,197.473862 226.996063,204.557587 C226.996063,166.106628 226.996063,128.754333 226.996063,91.077370 C211.549698,91.077370 196.422974,91.125031 181.296692,91.061752 C169.920502,91.014160 162.260193,83.395294 162.152252,71.939789 C162.039276,59.950661 162.126251,47.959644 162.125900,35.969456 C162.125793,32.706059 162.125885,29.442663 162.125885,25.964176 C147.551514,25.964176 133.585495,25.987846 119.619629,25.953335 C113.429985,25.938042 111.391304,24.113396 110.408264,17.961720 C111.587265,12.975401 114.866226,10.942588 119.846344,10.960247 C135.840073,11.016961 151.837860,10.806623 167.824570,11.146704 C170.642487,11.206649 174.077042,12.746436 176.105667,14.742364 C197.006439,35.306168 217.759216,56.023342 238.287933,76.957939 C240.439835,79.152382 241.950424,83.010567 241.967880,86.106941 C242.205307,128.250473 242.284531,170.397034 241.955734,212.539337 C241.906265,218.881653 244.378418,222.688721 249.501770,226.421814 C249.663483,218.083893 253.425354,211.491241 261.188110,211.457413 C267.622040,211.429352 274.073090,215.315811 280.874329,217.587524 C280.874329,216.971069 280.874329,215.264481 280.874329,213.557892 C280.874481,182.069839 280.863892,150.581787 280.880035,119.093742 C280.886475,106.488197 288.352203,99.006386 301.092926,98.995850 C346.575623,98.958252 392.058899,98.897774 437.540131,99.157890 C440.772949,99.176384 444.765869,100.927490 447.095337,103.209961 C467.919403,123.613869 488.463959,144.303391 509.031342,164.968018 C510.381775,166.324814 511.244110,168.167374 512.666748,169.891998 C513.000000,197.354233 513.000000,224.708450 512.679810,252.657379 C509.913147,254.893677 507.466675,256.535309 504.665466,258.072662 C499.437805,256.728271 497.936707,253.367249 497.957184,248.631729 C498.049255,227.316345 497.997284,206.000336 497.997223,184.684555 C497.997223,182.914383 497.997192,181.144211 497.997192,179.076614 C481.978546,179.076614 466.521301,179.163681 451.065643,179.046036 C440.742523,178.967468 433.145813,171.376190 432.916504,161.083145 C432.783020,155.090973 432.879883,149.093613 432.878326,143.098587 C432.875824,133.496841 432.877655,123.895111 432.877655,114.153023 C397.898590,114.153023 363.461792,114.153023 328.560791,114.069565 C319.120148,113.980354 310.142029,114.073135 301.168060,113.921188 C297.489899,113.858902 295.637024,114.943092 295.645599,118.978317 C295.721313,154.551620 295.666351,190.125183 295.769257,225.698334 C295.773285,227.080246 296.602631,229.046829 297.688446,229.747330 C307.999054,236.399231 318.448517,242.835861 329.050415,249.602509 C331.846954,252.742416 335.331757,255.211563 336.868134,258.571625 C339.875427,265.148468 337.147430,270.448395 328.548950,276.832886 C318.385162,283.140533 308.514862,289.288025 298.792908,295.661713 C297.391907,296.580170 295.824707,298.582550 295.816650,300.091278 C295.647308,331.869690 295.706848,363.649261 295.670654,395.428528 C295.666718,398.880615 297.275055,400.115234 300.589172,400.062256 C310.066589,399.910828 319.546387,399.908295 329.486084,399.928345 C383.738464,400.017365 437.530029,400.028046 491.321564,400.029388 C497.734497,400.029541 497.993286,399.753174 497.994232,393.153076 C497.999115,358.013672 498.047943,322.874084 497.941284,287.735016 C497.925354,282.492432 499.730347,279.083038 505.346252,278.042969 C508.119598,280.116516 510.559814,282.058258 513.000000,284.000000 C513.000000,322.687561 513.000000,361.375122 513.000000,400.531342 M231.870438,237.987930 C234.170334,237.987930 236.470230,237.987930 239.810257,237.987930 C236.293289,234.705032 233.679596,232.265289 230.830353,229.207993 C222.845871,221.221420 214.861389,213.234848 206.403748,204.774979 C206.403748,216.534470 206.403748,227.114655 206.403748,237.838348 C214.793167,237.838348 222.904434,237.838348 231.870438,237.987930 M201.831406,61.211300 C193.851578,53.231232 185.871735,45.251160 177.124924,36.504089 C177.124924,48.814938 177.207047,59.633553 177.081650,70.449760 C177.035965,74.390282 178.333221,76.307236 182.573868,76.129883 C189.050934,75.858986 195.542847,75.942848 202.937622,76.044586 C207.167099,76.044586 211.396576,76.044586 215.432007,76.044586 C210.852524,71.175163 206.458344,66.502762 201.831406,61.211300 M472.733948,149.452286 C464.709290,141.413315 456.684631,133.374359 447.890106,124.564163 C447.890106,137.187897 447.920715,148.489761 447.870850,159.791245 C447.856476,163.054123 449.469025,164.165726 452.540924,164.100952 C459.361359,163.957153 466.184784,163.956665 473.917938,164.067322 C478.069550,164.067322 482.221130,164.067322 485.720612,164.067322 C481.415131,159.337189 477.200867,154.707291 472.733948,149.452286 M257.525879,274.308105 C262.624023,277.056610 264.273590,281.721100 264.381317,287.847473 C264.381317,291.433960 264.381317,295.020416 264.381317,299.569519 C283.886871,287.198029 302.587616,275.337067 322.071930,262.979065 C318.592957,260.961731 315.921448,259.412659 312.865204,257.288971 C296.952759,247.191818 281.040344,237.094666 264.322876,226.486694 C264.322876,231.440887 264.389893,235.372238 264.309357,239.300583 C264.124237,248.331757 259.391388,252.989807 250.283676,253.022034 C236.153625,253.072037 222.023254,253.035583 207.893021,253.035751 C203.944763,253.035812 199.996506,253.035782 195.986984,253.035782 C195.986984,256.048126 195.986984,258.515686 195.789673,261.898926 C195.789673,265.485748 195.789673,269.072571 195.789673,272.994873 C213.801437,272.994873 231.217087,272.956177 248.632202,273.034302 C251.420532,273.046814 254.206528,273.581940 257.525879,274.308105 M87.069969,193.982162 C78.570099,193.977798 70.070229,193.969284 61.570354,193.970306 C54.010223,193.971207 54.005970,193.975861 54.005890,201.464264 C54.004890,291.796875 54.005238,382.129486 54.005322,472.462097 C54.005322,473.462097 54.037277,474.463165 54.001564,475.461853 C53.889900,478.584412 55.360855,480.063965 58.501999,480.036774 C68.330437,479.951660 78.159286,479.914520 88.914902,480.017578 C142.565735,480.022858 196.216568,480.031555 249.867401,480.028748 C255.974945,480.028442 256.308289,479.695404 256.309509,473.466095 C256.319580,421.481384 256.347321,369.496582 256.202850,317.512268 C256.196869,315.364166 254.535156,313.221619 253.648941,311.074768 C252.355148,307.940643 250.415833,304.901276 249.933029,301.646271 C249.287704,297.295502 249.773438,292.776978 249.773438,288.002686 C247.570908,288.002686 245.930450,288.002899 244.290009,288.002655 C227.628265,287.999969 210.966400,288.031097 194.304810,287.979492 C186.423859,287.955078 180.980225,282.430756 180.984207,274.665039 C180.988403,266.500885 180.533005,258.299561 181.204102,250.191071 C181.469620,246.983047 183.515182,242.284683 186.003036,241.235535 C191.363205,238.975067 191.284744,235.426102 191.171631,230.991104 C190.993271,223.997711 191.124191,216.996414 191.124191,209.998474 C191.124191,204.735916 191.124191,199.473373 191.124191,193.966553 C177.396103,193.966553 164.254700,193.795135 151.121201,194.042496 C145.016891,194.157486 140.025620,193.283386 138.984589,186.167648 C133.196518,186.167648 127.860794,186.024963 122.543587,186.275467 C121.327888,186.332733 119.577675,187.486450 119.102585,188.581879 C117.404671,192.496887 114.582550,194.016129 110.473824,193.994125 C102.981087,193.954010 95.487450,194.082733 87.069969,193.982162 z"/>
  <path fill="#060607" opacity="1.000000" stroke="none" d=" M59.666100,161.009308 C59.315960,158.468781 59.231014,156.147049 59.200050,153.478058 C62.329308,151.858688 65.397476,149.499725 68.480949,149.479553 C106.957886,149.227783 145.437042,149.310333 183.915619,149.334549 C185.398392,149.335480 186.933655,149.417206 188.353424,149.799469 C192.049088,150.794449 194.000763,153.473190 193.815582,157.163239 C193.620056,161.058975 191.390686,163.843628 187.322296,164.150848 C182.848679,164.488678 178.336029,164.347565 173.840363,164.348999 C139.026398,164.360092 104.211937,164.435699 69.399330,164.219177 C66.237236,164.199524 63.087021,162.270477 59.666100,161.009308 z"/>
  <path fill="#040405" opacity="1.000000" stroke="none" d=" M59.491005,131.090927 C59.006935,129.451050 58.809467,128.006210 58.536263,126.270660 C59.836983,121.573265 62.787277,119.754066 67.436249,119.763824 C106.561211,119.845963 145.686432,119.799767 184.811554,119.823593 C190.357117,119.826973 193.691040,122.511963 193.888489,126.907944 C194.093918,131.481400 190.558914,134.789017 184.951172,134.796707 C145.826111,134.850388 106.700554,134.892822 67.576653,134.673523 C64.970726,134.658920 62.377007,132.465820 59.491005,131.090927 z"/>
  <path fill="#060607" opacity="1.000000" stroke="none" d=" M329.960022,342.308472 C329.822235,340.925659 329.835846,339.865143 329.813690,338.408203 C331.299011,333.823761 334.451172,332.294128 338.717621,332.296997 C377.826904,332.323364 416.936188,332.287018 456.045410,332.340210 C461.814941,332.348053 465.152222,335.450165 464.980835,340.155609 C464.818573,344.608978 461.575348,347.328461 455.987610,347.333923 C416.878387,347.372253 377.769104,347.340942 338.659851,347.379364 C334.842255,347.383118 331.806396,346.294403 329.960022,342.308472 z"/>
  <path fill="#040505" opacity="1.000000" stroke="none" d=" M329.908203,312.320740 C329.810303,310.927338 329.851990,309.867615 329.860443,308.411407 C331.576263,303.936279 334.772522,302.746918 339.045135,302.756470 C377.819550,302.843353 416.594299,302.799866 455.368927,302.814941 C461.593964,302.817383 465.065796,305.579346 464.986847,310.329132 C464.907593,315.095703 461.440002,317.813049 455.166321,317.816742 C416.558105,317.839600 377.949860,317.814301 339.341675,317.849396 C335.195892,317.853149 331.779541,316.833069 329.908203,312.320740 z"/>
  <path fill="#010102" opacity="1.000000" stroke="none" d=" M330.055908,372.288696 C329.858551,370.921051 329.844055,369.860931 329.779358,368.406006 C331.196228,363.574738 334.363495,361.989471 338.905975,361.997162 C377.847076,362.062927 416.788391,362.024628 455.729614,362.046661 C461.509216,362.049927 464.965179,364.910614 464.991943,369.512970 C465.018707,374.114838 461.553772,377.022308 455.806580,377.025513 C416.865356,377.047302 377.924042,377.008453 338.982971,377.083008 C335.140015,377.090363 332.148132,376.055969 330.055908,372.288696 z"/>
  <path fill="#060607" opacity="1.000000" stroke="none" d=" M88.662292,424.007019 C88.314079,421.469086 88.229767,419.147003 88.198685,416.477539 C91.327232,414.857513 94.395424,412.497620 97.478935,412.477417 C135.958298,412.225525 174.439880,412.311493 212.920883,412.321198 C214.082596,412.321503 215.272125,412.295868 216.400986,412.521271 C220.548203,413.349304 223.001312,415.973511 222.808060,420.166412 C222.617416,424.302856 220.137543,426.985535 215.826965,427.231384 C211.841171,427.458710 207.835052,427.352905 203.837875,427.353607 C168.688553,427.359955 133.538757,427.437195 98.390762,427.220978 C95.229881,427.201508 92.080780,425.267670 88.662292,424.007019 z"/>
  <path fill="#040405" opacity="1.000000" stroke="none" d=" M88.489113,394.091431 C88.223846,391.570221 88.245354,389.243988 88.370155,386.580811 C91.253441,385.098572 94.027931,382.971527 96.814217,382.955963 C135.790497,382.738190 174.768402,382.797577 213.745895,382.821320 C219.500732,382.824829 222.996338,385.777466 222.902115,390.345276 C222.811096,394.756775 219.419098,397.790588 214.009857,397.798035 C174.865875,397.851837 135.721390,397.894714 96.578560,397.675354 C93.971413,397.660736 91.376495,395.466736 88.489113,394.091431 z"/>
  <path fill="#020202" opacity="1.000000" stroke="none" d=" M87.955917,452.325592 C87.801689,450.617584 87.818954,449.224335 87.820778,447.411041 C89.722206,443.387726 92.679741,441.978363 96.786407,441.986847 C135.722275,442.067230 174.658951,441.950104 213.593185,442.213043 C216.400528,442.231995 219.998764,444.160522 221.712341,446.375000 C222.906937,447.918823 222.337189,452.039734 221.021851,453.957642 C219.815674,455.716461 216.558411,456.901611 214.198517,456.912109 C174.930481,457.087128 135.660812,457.125641 96.393967,456.848145 C93.628677,456.828613 90.882484,454.106018 87.955917,452.325592 z"/>
</svg>