<?xml version="1.0" encoding="utf-8"?>
<svg version="1.1" id="Layer_1" xmlns="http://www.w3.org/2000/svg" x="0px" y="0px" width="100%" viewBox="0 0 853 853" enable-background="new 0 0 853 853">
  <path fill="#000000" opacity="1.000000" stroke="none" d=" M854.000000,653.531372 C853.666687,657.644714 852.978455,661.297241 853.058777,664.932861 C853.514343,685.562683 836.188965,700.311401 818.499268,700.854004 C794.917969,701.577332 771.304504,701.224548 747.705566,701.416931 C738.659973,701.490662 729.616516,701.950684 720.571655,701.963867 C678.146667,702.025757 635.721497,701.993713 593.296387,701.994446 C556.149475,701.995056 519.002563,701.994568 481.976807,701.994568 C481.643829,704.022644 480.954437,706.007935 481.067413,707.946594 C481.413391,713.882568 482.432373,719.796143 482.505646,725.726868 C482.589630,732.527161 481.991974,739.339355 481.597595,746.141052 C481.115173,754.461914 481.090637,762.859497 479.869934,771.075623 C478.018677,783.535828 462.999695,799.035767 449.590576,800.014038 C446.012207,800.275146 442.444366,800.940735 438.869934,800.954346 C415.972748,801.041748 393.075043,800.999390 370.177521,800.999451 C347.607635,800.999573 325.037720,800.999451 302.467834,800.999451 C283.318787,800.999390 264.169037,800.897278 245.020905,801.031006 C229.141937,801.141907 213.264206,801.783936 197.387115,801.742249 C166.633469,801.661438 135.879028,801.382629 105.128128,800.954712 C87.050232,800.703247 71.132927,787.030884 68.070488,768.501587 C67.272156,763.671326 67.143982,758.703247 67.034805,753.791138 C66.670326,737.392090 66.260468,720.989990 66.240685,704.588562 C66.224037,690.788208 66.814644,676.988220 66.973267,663.186218 C67.105286,651.699890 67.096954,640.209778 66.977379,628.723145 C66.800041,611.688782 66.426231,594.656433 66.245926,577.622131 C66.215271,574.725708 66.893578,571.825073 66.921036,568.923279 C66.931801,567.785339 66.053970,566.639038 65.569687,565.469666 C66.050972,564.183105 66.720230,562.394043 67.616005,559.999512 C60.303879,559.999512 53.986431,560.193604 47.684853,559.959839 C33.822674,559.445801 21.050394,556.388062 11.446540,545.081299 C5.648578,538.255371 2.071046,530.668030 2.057758,521.804749 C1.954315,452.808441 2.001873,383.811951 1.992755,314.815521 C1.992513,312.988251 1.878800,311.160980 1.409001,309.166870 C1.000000,309.000000 1.000000,308.500000 1.409004,308.083130 C1.877841,293.084290 1.950405,278.502258 1.954918,263.920258 C1.955116,263.280273 1.332503,262.640076 1.000001,262.000000 C1.000000,257.975464 1.000000,253.950912 1.408974,249.296265 C1.877786,232.084808 1.948841,215.503479 1.955057,198.922119 C1.955297,198.281525 1.332486,197.640717 0.999999,197.000000 C1.000000,197.000000 1.000000,196.500000 1.408910,196.082977 C1.877705,178.084900 1.948176,160.503860 1.955144,142.922806 C1.955398,142.281998 1.332488,141.640945 0.999998,141.000000 C1.000000,137.638718 1.000000,134.277420 1.408901,130.291031 C1.877663,118.082977 1.953498,106.500031 1.954421,94.917084 C1.954472,94.278076 1.332462,93.639030 1.000000,93.000000 C1.000000,93.000000 1.000000,92.500000 1.000000,92.250000 C2.655410,87.117004 3.785766,81.972260 6.065061,77.400291 C12.797449,63.895992 24.175137,56.700516 39.085514,56.109524 C59.018536,55.319458 78.981117,55.151039 98.933167,54.998463 C120.796921,54.831261 142.663849,55.098137 164.528046,54.961655 C179.523880,54.868046 194.518143,54.136887 209.511856,54.175289 C233.071335,54.235630 256.629333,54.766846 280.189148,54.930328 C283.574890,54.953823 287.414459,52.785400 290.268372,53.804150 C297.394623,56.348015 305.622589,53.446419 311.894714,61.717499 C320.549072,73.130028 332.011047,82.399590 342.152283,92.703331 C349.239716,99.904327 356.022797,107.405396 363.129547,114.586655 C377.653290,129.262650 392.385681,143.733246 406.805328,158.509796 C408.770325,160.523407 410.498962,163.798615 410.522308,166.505356 C410.654388,181.800140 410.027466,197.100037 410.051941,212.397568 C410.082306,231.370331 410.623901,250.342331 410.652100,269.315063 C410.658997,273.947571 409.947357,278.690186 408.793671,283.183868 C407.700745,287.440948 405.216034,290.789001 399.894714,290.709076 C395.619598,290.644897 389.527893,287.139282 388.349701,282.582367 C387.204712,278.153900 386.968842,273.449860 386.700165,268.845398 C386.346069,262.776978 386.254730,256.687866 386.244415,250.607330 C386.240082,248.056641 386.954163,245.505997 386.964355,242.953827 C387.033020,225.726532 387.000458,208.498840 387.000671,191.271271 C387.000702,186.982849 387.000671,182.694443 387.000671,178.008728 C368.968445,178.008728 350.198242,177.739761 331.440491,178.107498 C319.799927,178.335693 309.793549,174.956329 300.961609,167.496765 C294.515930,162.052673 291.410309,154.962418 289.929596,146.889313 C289.729218,145.796616 288.584473,144.877121 287.814270,143.788818 C288.098206,142.659592 288.925110,140.856384 288.945892,139.043930 C289.068146,128.379318 289.364960,117.694977 288.849701,107.053764 C288.585938,101.606003 289.205597,96.232292 288.981934,90.828857 C288.866302,88.034683 287.751617,85.442581 289.644501,82.477287 C290.546753,81.063866 290.080444,77.799164 286.005920,77.901215 C267.925262,78.354042 249.836136,78.551910 231.749146,78.629745 C223.220871,78.666451 214.691589,78.104332 206.160858,78.028511 C193.678879,77.917572 181.193237,77.861572 168.712753,78.037788 C155.536926,78.223816 142.365387,77.950653 129.191895,77.994102 C120.455711,78.022919 111.717712,77.893227 102.983528,78.028343 C93.417816,78.176323 83.855843,77.908417 74.291168,77.994484 C64.475655,78.082817 54.651920,77.784401 44.844845,78.083481 C39.050438,78.260178 32.668427,78.202744 28.942686,83.733170 C26.700638,87.061234 24.318024,91.133499 24.227823,94.924377 C23.872618,109.853020 24.461239,124.802261 24.564886,139.744781 C24.597097,144.388947 23.877926,149.049957 24.075769,153.678772 C24.430937,161.988358 24.422077,170.281006 24.240980,178.591736 C24.061296,186.837616 24.277065,195.091354 24.246250,203.341385 C24.195076,217.042145 23.823759,230.747604 24.081001,244.441818 C24.296658,255.922073 24.143473,267.387512 24.090616,278.862457 C24.024704,293.171082 24.792809,307.481934 24.850248,321.793243 C24.887922,331.179504 24.044939,340.568573 24.056067,349.955872 C24.077085,367.685486 24.552568,385.414398 24.599035,403.144257 C24.627884,414.151886 23.970903,425.163239 24.085867,436.168060 C24.163418,443.591614 25.286463,451.000214 25.491756,458.427948 C25.627359,463.334198 24.874689,468.259033 24.683598,473.181915 C24.476862,478.507690 24.416601,483.840576 24.374678,489.170959 C24.338331,493.792389 24.059647,498.456818 24.597660,503.018555 C24.860903,505.250519 24.363661,507.096619 24.091413,509.148804 C23.722731,511.928040 24.275438,514.825256 23.948763,517.615112 C22.922142,526.382568 28.314051,532.503479 34.611183,534.990234 C36.906368,535.896667 39.635109,535.914062 42.172619,535.958008 C49.170242,536.079224 56.171337,536.000122 63.171055,536.000305 C64.306396,536.000305 65.441742,536.000366 66.158211,536.000366 C66.158211,519.654297 66.090294,503.658112 66.196892,487.663086 C66.231842,482.418701 66.935913,477.178345 66.961906,471.934326 C67.058517,452.435577 67.000168,432.936066 67.000191,413.436859 C67.000221,382.149048 67.166122,350.859802 66.895760,319.574341 C66.818443,310.628204 70.432007,303.513611 75.647484,296.916412 C81.288315,289.781189 89.033485,286.660858 97.845062,284.727478 C102.602020,283.683746 107.074646,284.273621 111.660286,284.058807 C116.981728,283.809509 122.323799,283.999695 127.656921,284.001099 C142.348175,284.004974 157.040848,283.883850 171.730301,284.048889 C187.370209,284.224579 203.006104,284.883789 218.645477,284.955627 C250.793549,285.103241 282.942749,284.999847 315.091492,284.999908 C325.574432,284.999908 336.079315,285.415039 346.532898,284.861176 C354.069366,284.461884 359.144379,288.169464 363.963867,292.884216 C371.790283,300.540588 379.552734,308.263855 387.255829,316.044373 C396.233154,325.111847 405.032745,334.356354 414.068726,343.364319 C421.540710,350.813110 429.290863,357.982025 436.829987,365.364563 C442.568420,370.983795 448.361877,376.567291 453.780670,382.487213 C460.085907,389.375549 461.438141,395.826477 458.847229,405.689819 C458.459930,407.164154 456.335388,408.885864 454.757050,409.200165 C451.252869,409.897888 447.581482,410.006378 443.985168,409.945862 C430.565186,409.720001 417.149170,409.263000 403.729309,409.025391 C395.898773,408.886780 388.062592,408.913269 380.230927,409.016541 C359.300507,409.292480 342.674042,389.688171 342.960358,371.614227 C343.168518,358.474854 342.853302,345.327240 343.057465,332.187744 C343.180420,324.273834 343.851501,316.368439 344.320587,307.633453 C328.798157,307.633453 313.854614,307.657135 298.911163,307.626678 C284.599182,307.597473 270.285919,307.613861 255.975754,307.422699 C241.788147,307.233246 227.594803,306.622650 213.476929,307.738678 C213.592926,308.181061 213.708923,308.623444 213.824921,309.065826 C212.877579,308.377472 211.935440,307.098450 210.982086,307.090057 C198.272583,306.978180 185.561478,307.056305 172.850784,307.061890 C163.816452,307.065826 154.781937,306.986298 145.747849,307.026489 C135.248260,307.073212 124.743881,307.045746 114.251900,307.377289 C109.050278,307.541626 103.855972,308.323456 98.687416,309.036560 C93.845146,309.704590 89.051521,315.722870 89.053757,321.626740 C89.060486,339.419556 89.358154,357.212036 89.440575,375.005127 C89.465271,380.337158 88.983543,385.672272 89.031944,391.003265 C89.178978,407.199158 89.700722,423.394226 89.661423,439.588623 C89.572182,476.365326 89.209724,513.141296 89.011147,549.917786 C88.933762,564.250061 88.736717,578.589539 89.084023,592.913818 C89.345741,603.708008 88.866714,614.482422 88.974335,625.267334 C89.087257,636.582825 88.880104,647.901855 89.028053,659.216492 C89.235855,675.107666 89.805008,690.996460 89.780899,706.885620 C89.777451,709.158508 88.410378,711.234131 90.825241,713.042725 C90.895355,713.095154 89.096115,714.912964 89.083420,715.919128 C88.948776,726.583679 88.888702,737.252197 89.044319,747.916138 C89.128441,753.681213 89.484802,759.457703 90.048889,765.196472 C90.759979,772.430847 100.649521,779.113831 108.254372,778.387085 C114.005058,777.837585 119.846199,778.115051 125.644272,778.205322 C138.873550,778.411255 152.101227,778.923706 165.329285,778.914734 C171.625656,778.910461 177.915100,777.838684 184.221054,777.590637 C186.288498,777.509338 188.394745,778.916748 190.489014,778.933777 C205.718964,779.057556 220.950851,779.056641 236.180771,778.931091 C238.161209,778.914734 240.132217,777.954712 242.111267,777.446045 C242.731750,777.286560 243.553970,776.848938 243.963104,777.087891 C251.432831,781.450439 259.338898,778.060547 267.017365,778.407166 C275.768280,778.802124 284.535828,778.942932 293.296936,778.975342 C314.092163,779.052307 334.889587,778.872925 355.681183,779.158325 C358.325226,779.194641 360.532288,777.422180 363.682159,778.700562 C366.576813,779.875366 370.464966,778.446594 373.915039,778.451111 C377.513641,778.455872 381.109955,778.905762 384.710693,778.971252 C388.355713,779.037476 392.004944,778.824768 395.652405,778.821228 C398.851929,778.818054 402.068573,779.169617 405.246826,778.939453 C409.101074,778.660339 412.924805,777.503418 416.758453,777.519287 C420.907745,777.536377 425.044098,778.739075 429.204498,778.879822 C431.141785,778.945435 433.129852,777.192688 435.081787,777.219543 C437.567047,777.253601 440.014587,778.595703 442.521332,778.775574 C449.409119,779.269653 458.493866,771.263977 458.405914,765.012268 C458.286194,756.504517 458.062073,747.997559 458.017578,739.489624 C457.946838,725.960938 458.169525,712.427734 457.881195,698.904785 C457.781738,694.240662 457.916748,689.603821 457.982239,684.953064 C458.057312,679.620972 457.919495,674.285522 458.023621,668.954407 C458.121735,663.930969 463.187469,656.937866 468.155884,656.657654 C471.614044,656.462646 475.422668,658.368164 478.634216,660.135742 C479.763489,660.757263 479.860718,663.748047 479.942627,665.677734 C480.124756,669.966125 479.999481,674.267578 479.999481,679.000366 C481.954956,679.000366 483.570618,679.000427 485.186310,679.000366 C577.349304,679.000305 669.512268,679.000061 761.675232,678.999939 C779.467712,678.999939 797.260193,679.031006 815.052612,678.987671 C824.830444,678.963928 830.644043,673.492554 830.966675,663.755737 C831.433044,649.680115 832.018738,635.593201 831.871460,621.518188 C831.778992,612.683411 832.299744,603.867371 832.057373,595.032471 C831.801941,585.723083 832.000000,576.401306 832.000122,567.084900 C832.000244,557.751953 832.000488,548.418945 832.000549,539.085999 C832.000610,529.753052 832.000366,520.420105 832.000366,511.087128 C832.000305,501.754181 832.000366,492.421204 832.000366,483.088257 C832.000366,473.588623 832.000305,464.089020 832.000305,454.589386 C832.000305,445.256439 832.000549,435.923462 832.000488,426.590515 C832.000488,417.257568 832.155212,407.920959 831.936768,398.593140 C831.821838,393.684692 830.687561,388.792114 830.679688,383.891296 C830.670898,378.424347 831.683960,372.960419 831.770935,367.487518 C831.889709,360.016296 831.464905,352.538208 831.431458,345.062347 C831.366638,330.577301 831.412476,316.091736 831.412476,301.014008 C827.056519,301.238251 822.395569,301.710785 817.738159,301.678131 C796.512329,301.529358 775.235901,302.051971 754.080627,300.709869 C740.223633,299.830750 726.405090,287.717285 723.198914,272.280914 C721.705750,265.092346 722.264343,257.470734 721.969360,250.042404 C721.727539,243.955994 721.519043,237.865906 721.456787,231.775803 C721.429749,229.132095 721.957947,226.485138 721.973633,223.838120 C722.037415,213.101807 722.000183,202.364929 722.000183,190.999725 C715.193481,190.999725 708.454651,190.953842 701.716614,191.008713 C684.502991,191.148849 667.289673,191.464279 650.076233,191.464279 C632.865662,191.464279 615.655334,191.061768 598.444458,191.022110 C565.138489,190.945389 531.832275,190.993393 498.526123,191.003586 C489.263855,191.006409 480.683807,196.558655 479.428162,204.355209 C478.536011,209.894547 479.101257,215.677002 479.108185,221.350830 C479.118805,230.007568 479.152710,238.665024 479.277954,247.320709 C479.503754,262.925507 479.830200,278.528839 480.058411,294.133575 C480.128876,298.952545 480.385193,303.811005 479.907990,308.586578 C479.028809,317.385071 469.225586,322.722321 464.206757,319.080475 C460.585571,316.452820 457.894531,313.778381 457.937469,308.819519 C458.095093,290.607147 458.000153,272.392609 458.000092,254.178864 C458.000061,236.977646 458.011932,219.776413 457.995575,202.575211 C457.983093,189.464417 468.722504,176.624664 481.266083,171.947296 C489.958618,168.705948 498.862244,168.905441 507.863464,168.955887 C518.539001,169.015701 529.215942,168.714859 539.892761,168.667648 C547.750854,168.632889 555.609741,168.802246 563.468140,168.796860 C582.929321,168.783524 602.390564,168.726868 621.851746,168.677780 C629.902710,168.657471 637.957397,168.750748 646.003479,168.535385 C652.803589,168.353394 659.600403,167.396103 666.386841,167.506439 C676.599731,167.672470 686.796997,168.688934 697.010803,168.940384 C707.820557,169.206528 718.642334,169.052597 729.458130,168.980347 C735.602844,168.939301 740.768372,170.672546 745.046631,175.435638 C751.582520,182.712341 758.364868,189.780197 765.267334,196.712936 C790.957214,222.515335 816.760010,248.205261 842.462646,273.994965 C846.237061,277.782104 849.699097,281.880463 853.652832,285.917419 C854.000000,305.020905 854.000000,324.041779 853.591248,343.698669 C853.122681,357.916382 853.049194,371.498138 853.045776,385.079865 C853.045593,385.719849 853.667664,386.359955 854.000000,387.000000 C854.000000,418.687561 854.000000,450.375122 853.591309,482.698669 C853.122742,493.584503 853.044922,503.834320 853.046265,514.084167 C853.046387,514.722839 853.667725,515.361389 854.000000,516.000000 C854.000000,530.020874 854.000000,544.041809 853.591309,558.698608 C853.122803,569.251282 853.044495,579.167969 853.046509,589.084717 C853.046631,589.723206 853.667786,590.361572 854.000000,591.000000 C854.000000,611.687561 854.000000,632.375122 854.000000,653.531372 M784.500000,279.000183 C794.546997,279.000183 804.593994,279.000183 812.240662,279.000183 C789.576782,256.305664 766.033203,232.730240 744.588318,211.256363 C744.588318,218.117966 745.544678,227.959763 744.311829,237.519211 C743.143982,246.574936 746.502014,255.684067 743.230957,264.565796 C742.969910,265.274719 743.582214,266.465271 744.066895,267.262939 C747.272949,272.540070 751.054138,277.413208 757.744629,277.923279 C766.307373,278.576172 774.912903,278.667114 784.500000,279.000183 M391.000244,351.499756 C381.735504,343.186188 372.470795,334.872589 363.206055,326.559021 C363.704681,326.134003 364.203278,325.708984 364.701904,325.283936 C364.801056,327.045959 364.983032,328.807800 364.986176,330.569977 C365.010254,344.090820 364.914703,357.612579 365.043579,371.132233 C365.091705,376.177216 366.349365,380.994720 371.629944,383.092377 C375.720734,384.717346 380.001099,386.539246 384.297699,386.840668 C395.483154,387.625336 406.723389,387.642120 417.942902,387.919586 C421.265778,388.001770 424.592407,387.932281 427.917297,387.932281 C428.175415,387.412323 428.433563,386.892365 428.691681,386.372406 C427.858490,385.928131 426.975464,385.556793 426.200470,385.027313 C422.261261,382.335754 417.842621,380.108826 414.530060,376.784363 C406.574799,368.800476 399.143127,360.294891 391.000244,351.499756 M321.950562,152.984009 C324.512207,153.322968 327.065613,153.859070 329.636902,153.966080 C339.685638,154.384338 349.738861,154.708069 359.792786,154.980530 C364.074829,155.096573 368.362671,154.999924 372.718475,154.999924 C352.306030,134.779984 332.372223,115.034172 311.999084,94.853165 C311.999084,109.495789 312.427399,123.454704 311.830658,137.369659 C311.498566,145.112686 314.451111,149.795029 321.950562,152.984009 z"/>
  <path fill="#FFFFFF" opacity="1.000000" stroke="none" d=" M0.999998,141.468658 C1.332488,141.640945 1.955398,142.281998 1.955144,142.922806 C1.948176,160.503860 1.877705,178.084900 1.408910,195.832977 C1.000000,177.979111 1.000000,159.958206 0.999998,141.468658 z"/>
  <path fill="#FFFFFF" opacity="1.000000" stroke="none" d=" M0.999999,197.468658 C1.332486,197.640717 1.955297,198.281525 1.955057,198.922119 C1.948841,215.503479 1.877786,232.084808 1.408974,248.833069 C1.000000,231.979111 1.000000,214.958206 0.999999,197.468658 z"/>
  <path fill="#FFFFFF" opacity="1.000000" stroke="none" d=" M1.000001,262.468658 C1.332503,262.640076 1.955116,263.280273 1.954918,263.920258 C1.950405,278.502258 1.877841,293.084290 1.409004,307.833130 C1.000000,292.979095 1.000000,277.958221 1.000001,262.468658 z"/>
  <path fill="#FFFFFF" opacity="1.000000" stroke="none" d=" M854.000000,386.531342 C853.667664,386.359955 853.045593,385.719849 853.045776,385.079865 C853.049194,371.498138 853.122681,357.916382 853.591248,344.167328 C854.000000,358.020905 854.000000,372.041779 854.000000,386.531342 z"/>
  <path fill="#FFFFFF" opacity="1.000000" stroke="none" d=" M1.000000,93.468658 C1.332462,93.639030 1.954472,94.278076 1.954421,94.917084 C1.953498,106.500031 1.877663,118.082977 1.408901,129.832962 C1.000000,117.979103 1.000000,105.958214 1.000000,93.468658 z"/>
  <path fill="#FFFFFF" opacity="1.000000" stroke="none" d=" M854.000000,515.531372 C853.667725,515.361389 853.046387,514.722839 853.046265,514.084167 C853.044922,503.834320 853.122742,493.584503 853.591309,483.167328 C854.000000,493.687561 854.000000,504.375122 854.000000,515.531372 z"/>
  <path fill="#FFFFFF" opacity="1.000000" stroke="none" d=" M854.000000,590.531372 C853.667786,590.361572 853.046631,589.723206 853.046509,589.084717 C853.044495,579.167969 853.122803,569.251282 853.591309,559.167236 C854.000000,569.354248 854.000000,579.708435 854.000000,590.531372 z"/>
  <path fill="#000000" opacity="1.000000" stroke="none" d=" M457.000000,436.000488 C444.338593,436.000427 432.175659,436.115234 420.016327,435.956573 C412.927551,435.864075 405.847443,435.167603 398.758118,435.041687 C389.367767,434.874908 379.971649,435.061432 370.579254,434.968872 C367.022705,434.933838 362.554871,429.768341 362.290314,425.720093 C362.057678,422.159912 366.470612,416.159363 369.856781,416.053436 C384.581329,415.592804 399.313080,415.368408 414.040466,414.990326 C431.367096,414.545593 448.689423,413.884277 466.018280,413.592926 C479.768951,413.361725 493.526642,413.546326 508.107269,413.546326 C503.524994,409.248444 499.058685,405.306580 494.875183,401.084442 C485.922058,392.048737 476.835571,383.119720 468.333649,373.670166 C461.057892,365.583466 462.965546,355.544250 473.926697,352.435059 C478.407379,351.164124 480.959198,353.928284 483.431549,356.265930 C491.851776,364.227539 499.971680,372.507416 508.184204,380.687866 C515.974182,388.447296 523.624329,396.351379 531.554016,403.964630 C536.154175,408.381165 541.246033,412.281097 545.996216,416.547546 C548.559082,418.849426 551.570068,421.101898 550.116333,425.392120 C550.070129,425.528381 551.103516,426.030518 551.781128,426.454376 C551.223877,426.757019 550.482910,426.899109 550.296936,427.299194 C546.949646,434.499207 539.468445,437.280182 534.253540,442.449921 C525.757629,450.872101 517.722473,459.758179 509.254730,468.209869 C500.632751,476.815521 492.128082,485.630280 482.712250,493.297607 C479.560120,495.864410 473.744171,495.761749 469.182617,495.627869 C467.820160,495.587891 465.685059,491.393707 465.437500,488.947632 C464.125336,475.983002 474.694550,470.136902 482.084930,462.494019 C489.987183,454.321777 498.139404,446.391113 506.201416,438.374023 C506.595154,437.982483 507.170258,437.773346 508.055634,437.242584 C490.821442,436.819153 474.160706,436.409821 457.000000,436.000488 z"/>
  <path fill="#000000" opacity="1.000000" stroke="none" d=" M448.774200,610.725708 C455.826233,603.749023 462.630493,597.031189 470.117706,589.639099 C456.772583,589.639099 445.029816,589.734558 433.289398,589.610779 C422.695251,589.499084 412.104340,589.115112 401.510834,588.909119 C384.616913,588.580627 367.721039,588.346558 350.828094,587.975830 C344.424957,587.835327 337.978821,587.808716 331.645782,586.999146 C327.748352,586.500854 324.405579,580.163818 325.010651,576.087524 C325.850342,570.430969 329.080292,567.111633 334.147736,567.018616 C354.717316,566.640930 375.287170,566.218384 395.858917,566.034180 C414.231018,565.869690 432.607178,566.127625 450.978455,565.922668 C457.180145,565.853516 463.372375,564.937439 469.437012,564.419678 C463.139557,558.612061 456.658539,552.408020 449.915619,546.502991 C445.950989,543.031067 440.285797,540.821106 437.711487,536.618652 C434.698792,531.700623 431.014435,525.991821 433.035187,519.350647 C434.576538,514.285034 437.844116,511.210297 443.403900,510.939056 C444.131592,510.903534 444.821625,510.096771 445.577148,509.616699 C446.035950,510.159119 446.578247,511.372284 447.483917,511.781769 C455.830200,515.555298 460.522186,523.089172 466.248749,529.596924 C469.468323,533.255737 473.034149,536.619873 476.556122,539.999939 C481.067657,544.329773 485.833740,548.401489 490.233704,552.838684 C496.359039,559.015869 502.091370,565.586792 508.294189,571.681519 C512.049438,575.371338 512.892578,579.265137 509.175690,583.346436 C504.373138,588.619995 499.593170,593.934998 494.477997,598.896606 C490.119293,603.124451 484.978149,606.563660 480.748932,610.903259 C470.770355,621.142212 460.966766,631.564575 451.426910,642.212463 C447.296722,646.822327 440.259308,647.629822 435.743164,643.289673 C430.561035,638.309448 431.182068,627.422180 435.774078,622.810852 C439.861603,618.706177 444.263367,614.914490 448.774200,610.725708 z"/>
  <path fill="#000000" opacity="1.000000" stroke="none" d=" M164.000778,650.000610 C179.218674,649.747559 193.936203,649.354187 208.655075,649.294312 C217.410019,649.258728 226.166779,649.952942 234.923279,649.966675 C281.399963,650.039490 327.876801,650.000488 374.353607,650.000732 C381.749420,650.000732 386.623444,655.007080 385.998322,661.958557 C385.301636,669.705261 380.528809,673.125488 372.376984,672.096375 C369.243561,671.700806 366.020996,672.002136 362.839050,672.001526 C345.695709,671.998230 328.545563,671.700500 311.411163,672.091431 C296.874878,672.423035 282.359680,671.760010 267.829926,671.942017 C249.004730,672.177856 230.173798,671.910522 211.346313,672.023254 C190.124847,672.150330 168.904434,672.587097 147.683640,672.580933 C143.436508,672.579712 140.020248,670.158142 138.268524,665.854065 C137.249985,663.351440 134.748260,661.307434 137.229553,658.205322 C140.714310,653.848694 143.615524,649.072144 150.517624,649.904846 C154.787094,650.420044 159.169342,650.000427 164.000778,650.000610 z"/>
  <path fill="#000000" opacity="1.000000" stroke="none" d=" M238.108398,227.994049 C223.883377,227.664856 210.142273,227.096024 196.399261,227.045242 C159.923599,226.910446 123.447105,227.008118 86.970947,226.992554 C78.799469,226.989075 73.098183,221.380966 73.365387,213.709473 C73.511444,209.516434 79.325523,205.017334 84.755798,205.010422 C104.233826,204.985596 123.711906,205.000320 143.189972,205.000305 C182.495987,205.000275 221.805344,205.281845 261.105865,204.817444 C271.946838,204.689331 282.559448,205.751358 293.233856,206.941772 C293.989471,207.026016 294.902557,207.379761 295.389923,207.923920 C299.645325,212.675339 299.848877,217.759613 297.166870,223.504623 C295.442535,227.198273 292.431641,227.701904 289.249084,227.931183 C285.545807,228.197968 281.808899,228.101852 278.079987,228.058350 C264.918671,227.904755 251.754532,227.993622 238.108398,227.994049 z"/>
  <path fill="#000000" opacity="1.000000" stroke="none" d=" M692.000000,348.001343 C715.331055,348.001190 738.162415,348.055847 760.993042,347.957520 C765.955261,347.936157 770.705505,347.522186 775.111084,350.891235 C779.381470,354.156830 779.428284,358.495667 778.841248,362.778839 C778.349060,366.370178 775.681885,368.789154 771.727539,368.987823 C763.293640,369.411438 754.859375,369.906494 746.419006,370.098694 C739.098572,370.265411 731.769714,370.038940 724.444458,370.015839 C716.972046,369.992249 709.499512,370.003357 702.027039,370.001831 C692.702393,369.999939 683.359924,369.693878 674.066772,370.234680 C671.971680,370.356567 670.492798,369.750458 668.744141,369.562134 C666.855530,369.358795 664.782654,370.867432 662.510254,371.736328 C662.622437,371.132233 662.760315,370.389618 663.016296,369.011353 C655.427979,369.011353 647.948914,368.929565 640.472046,369.026764 C618.512268,369.312164 596.552795,369.942566 574.594482,369.890289 C562.245056,369.860901 559.989136,361.527344 563.067322,354.123322 C564.946533,349.603210 569.308289,348.036621 574.011780,348.024200 C594.676270,347.969635 615.341003,348.000397 636.005615,348.000488 C654.503723,348.000549 673.001892,348.001007 692.000000,348.001343 z"/>
  <path fill="#000000" opacity="1.000000" stroke="none" d=" M686.135010,550.000671 C702.533997,550.002075 718.491455,550.004333 734.448975,550.004456 C745.107910,550.004578 755.767029,549.959717 766.425659,550.015930 C773.020996,550.050720 778.644043,555.264038 779.048706,561.122498 C779.472229,567.254211 777.054138,571.366882 767.708374,571.888977 C758.589050,572.398376 749.418945,571.999817 740.271179,571.999817 C711.611816,571.999878 682.952026,571.910645 654.293213,572.036133 C639.060120,572.102844 623.828857,572.734009 608.596375,572.753052 C595.719360,572.769104 582.841125,572.290833 569.964478,571.987976 C565.718445,571.888062 563.190430,569.306458 563.000488,565.062439 C562.511902,554.148926 566.065308,551.074402 578.443848,550.966187 C603.800415,550.744629 629.154846,550.294800 654.511047,550.019165 C664.904053,549.906128 675.299316,550.000549 686.135010,550.000671 z"/>
  <path fill="#000000" opacity="1.000000" stroke="none" d=" M642.001587,504.999023 C624.750366,504.999207 607.998596,504.999359 591.246887,504.999481 C584.597351,504.999542 577.930298,504.702911 571.303833,505.093872 C566.032593,505.404846 563.039429,502.222687 562.179321,498.302704 C561.466675,495.055023 560.599915,490.990417 564.522034,487.591522 C567.752747,484.791748 570.713623,483.913452 574.667175,483.947388 C589.814575,484.077515 604.967407,484.210205 620.111084,483.940125 C634.807495,483.678070 649.491516,482.699982 664.187866,482.458893 C674.886108,482.283386 685.594910,482.910583 696.300232,482.973938 C713.162964,483.073761 730.026794,483.000519 746.890137,483.000488 C753.931458,483.000488 760.972717,482.997894 768.014038,483.000977 C774.470032,483.003815 778.460693,486.315887 779.053040,491.594147 C779.749268,497.798828 775.899658,503.149506 769.255371,503.890930 C762.066833,504.693054 754.788086,504.863464 747.544250,504.955475 C735.047546,505.114258 722.546448,504.927582 710.049561,505.078796 C708.227600,505.100861 706.429077,506.223572 704.597595,506.761749 C703.999146,506.937592 703.226440,507.111908 702.709534,506.885254 C693.982666,503.059021 684.922058,505.679016 676.015442,505.446198 C669.344177,505.271759 662.672302,505.110199 655.999634,505.011780 C651.501038,504.945435 647.000671,504.999023 642.001587,504.999023 z"/>
  <path fill="#000000" opacity="1.000000" stroke="none" d=" M672.241760,416.000000 C687.313965,415.712372 701.920471,415.181641 716.526306,415.199829 C734.004944,415.221619 751.482849,415.728333 768.961548,415.991028 C774.760376,416.078156 778.284424,418.731873 778.994080,423.693481 C780.045776,431.046356 777.767456,435.393097 771.709167,436.937775 C769.074402,437.609528 766.284912,437.928558 763.561462,437.953705 C751.904297,438.061249 740.239502,437.774628 728.589844,438.089020 C722.211365,438.261169 715.801758,437.602631 709.505005,438.143768 C698.671631,439.074768 687.928406,437.502899 677.123291,437.904236 C665.656799,438.330170 654.162170,437.999390 642.679871,437.999146 C631.014282,437.998901 619.348633,437.975403 607.683167,438.019348 C605.473877,438.027649 603.266785,438.321838 601.056763,438.453064 C593.874207,438.879608 590.032166,434.196716 586.711243,428.889099 C585.267700,426.581940 588.160278,419.601685 591.410706,418.332153 C594.520386,417.117645 597.950562,416.143372 601.253174,416.101105 C618.248901,415.883514 635.267090,416.452820 652.238220,415.771790 C658.803772,415.508362 665.266296,416.296478 672.241760,416.000000 z"/>
  <path fill="#000000" opacity="1.000000" stroke="none" d=" M215.191589,457.996338 C204.823517,458.161865 194.916580,458.421570 185.008804,458.458862 C178.940369,458.481720 172.870911,458.078003 166.801285,458.058594 C165.286682,458.053741 163.779709,458.839935 162.250092,459.175171 C161.298248,459.383728 160.177902,459.789734 159.359360,459.489807 C151.696854,456.682343 141.346695,459.855347 137.094757,449.378510 C135.190063,444.685303 140.580826,437.273163 146.499832,437.027954 C156.886566,436.597626 167.278183,436.223816 177.671555,436.033905 C186.555405,435.871582 195.444992,436.034943 204.330551,435.929230 C204.982269,435.921478 205.560349,434.788452 206.287735,434.387177 C206.818863,434.094177 208.071121,433.977264 208.098770,434.065369 C209.323883,437.968414 212.517517,435.869904 214.589798,435.885010 C239.212479,436.064178 263.836914,436.000183 288.460876,436.000092 C298.421417,436.000061 308.381989,435.986481 318.342468,436.007538 C321.918549,436.015076 328.441406,441.234650 328.987518,444.455933 C329.745636,448.927490 327.119354,453.860809 322.160767,455.213104 C316.743134,456.690521 311.051239,457.768494 305.456604,457.877625 C288.307495,458.212250 271.147736,457.999451 253.992096,457.998962 C241.212189,457.998627 228.432281,457.997467 215.191589,457.996338 z"/>
  <path fill="#000000" opacity="1.000000" stroke="none" d=" M225.871384,158.999329 C209.277954,158.999283 193.146835,158.999039 177.015701,158.999130 C150.398392,158.999283 123.780365,159.088364 97.164757,158.875732 C94.191978,158.851974 91.262428,161.418106 88.197914,159.095505 C88.014931,158.956818 86.816635,160.157730 85.471481,161.228104 C84.694405,160.808395 83.115898,159.580734 81.331528,159.064148 C76.473091,157.657654 73.092804,153.853363 73.000587,149.211456 C72.900963,144.195847 76.615616,139.016098 81.409676,138.072891 C84.452972,137.474152 87.617401,137.293854 90.729683,137.274475 C113.374832,137.133362 136.020493,137.063431 158.666092,137.006699 C172.513901,136.972000 186.361877,137.000595 200.209778,137.000717 C209.695007,137.000809 219.199081,136.632828 228.659470,137.117676 C236.188934,137.503571 241.307343,142.795303 240.640106,148.247223 C239.828735,154.876816 234.488480,158.890274 225.871384,158.999329 z"/>
  <path fill="#000000" opacity="1.000000" stroke="none" d=" M152.707336,536.680542 C142.119797,537.124451 135.304611,529.161255 139.108994,520.912659 C141.530472,515.662415 146.735413,514.015869 152.313339,514.010559 C177.625122,513.986511 202.936951,514.000427 228.248764,514.000549 C245.534103,514.000610 262.819458,513.992920 280.104797,514.006470 C284.197479,514.009644 290.777802,518.470947 291.217468,523.324524 C291.541626,526.903259 289.960541,530.975891 286.072601,533.885742 C281.358307,537.414124 276.271057,536.282654 271.472076,536.474426 C258.614349,536.988159 245.721405,536.677429 232.843185,536.588684 C228.650055,536.559753 224.460342,536.063293 220.266998,536.028259 C210.518433,535.946838 200.768616,536.022949 191.019302,536.022583 C179.177612,536.022095 167.335892,536.000427 155.494247,536.018860 C154.689178,536.020081 153.884506,536.279846 152.707336,536.680542 z"/>
  <path fill="#000000" opacity="1.000000" stroke="none" d=" M278.101562,603.550110 C275.638916,603.890259 273.497650,603.989868 271.356293,603.991882 C256.459473,604.005737 241.562637,603.999268 226.665802,603.999451 C208.525772,603.999634 190.383820,603.849365 172.246735,604.080261 C165.731537,604.163269 159.224594,605.639832 152.720291,605.592834 C147.752121,605.557007 142.618179,604.975586 139.256638,599.924561 C136.708649,596.095947 136.375839,592.317688 138.263535,588.537109 C141.090973,582.874634 146.614975,582.036560 152.204559,582.026917 C183.036407,581.973755 213.868393,582.001343 244.700333,582.001282 C254.033249,582.001282 263.367035,581.929932 272.698486,582.047180 C275.297058,582.079773 277.951782,582.419373 280.471069,583.053833 C286.896698,584.671936 290.580597,589.136108 289.998535,594.205994 C289.337830,599.960510 285.920380,602.634827 278.101562,603.550110 z"/>
  <path fill="#000000" opacity="1.000000" stroke="none" d=" M213.000000,389.999725 C192.834198,389.999695 173.165497,390.178680 153.504837,389.860809 C149.146881,389.790344 144.481003,388.658356 140.566223,386.759155 C136.386200,384.731354 135.412384,380.091614 136.073303,375.652405 C136.857162,370.387360 141.857834,369.395844 145.675430,368.214752 C149.354996,367.076385 153.584473,367.602661 157.572601,367.597137 C166.942780,367.584167 176.329163,367.376953 185.677841,367.856110 C192.144531,368.187592 198.553345,367.329895 205.039963,367.867523 C212.157654,368.457458 219.363571,367.899506 226.527420,368.034149 C239.686264,368.281494 252.860199,369.196167 265.991455,368.753174 C271.628448,368.563019 274.971649,370.277832 277.221832,374.782593 C281.020630,382.387665 276.139160,389.944275 267.452484,389.978424 C249.468582,390.049133 231.484192,389.999725 213.000000,389.999725 z"/>
</svg>